<?xml version="1.0" standalone="no"?>
<!DOCTYPE svg PUBLIC "-//W3C//DTD SVG 20010904//EN"
 "http://www.w3.org/TR/2001/REC-SVG-20010904/DTD/svg10.dtd">
<svg version="1.0" xmlns="http://www.w3.org/2000/svg"
 width="500.000000pt" height="500.000000pt" viewBox="0 0 500.000000 500.000000"
 preserveAspectRatio="xMidYMid meet">
<metadata>
Created by potrace 1.11, written by Peter Selinger 2001-2013
</metadata>
<g transform="translate(0.000000,500.000000) scale(0.100000,-0.100000)"
fill="#000000" stroke="none">
<path d="M2480 4950 c-104 -62 -222 -130 -226 -130 -2 0 -23 -12 -47 -27 -23
-15 -51 -32 -62 -38 -27 -15 -432 -250 -685 -398 -113 -66 -225 -131 -250
-145 -25 -14 -92 -53 -150 -87 -58 -34 -148 -86 -200 -116 -52 -29 -97 -56
-100 -59 -3 -3 -16 -11 -29 -18 -13 -8 -38 -22 -55 -31 -32 -19 -189 -109
-254 -147 l-37 -22 0 -1232 0 -1233 95 -55 c108 -63 134 -78 251 -145 46 -26
167 -96 269 -156 102 -59 421 -245 710 -413 289 -168 539 -314 557 -324 18
-11 77 -45 133 -77 l101 -58 287 167 c158 92 301 175 317 185 17 10 41 24 55
32 57 32 123 70 275 159 88 52 167 97 175 101 8 4 38 21 65 37 28 17 65 38 83
47 17 9 32 20 32 25 0 4 5 8 11 8 6 0 39 17 73 38 33 20 72 42 86 49 14 7 43
24 65 38 22 13 47 28 55 32 13 6 118 67 160 93 8 5 62 36 120 70 58 33 139 80
180 104 l75 44 0 1232 0 1232 -120 70 c-66 39 -145 84 -175 101 -51 28 -67 38
-125 75 -11 7 -32 18 -47 25 -16 6 -28 15 -28 19 0 4 -4 8 -9 8 -8 0 -172 93
-266 151 -16 10 -37 22 -45 26 -8 4 -75 43 -150 86 -137 81 -170 100 -237 138
-21 12 -90 52 -153 89 -63 37 -131 77 -150 87 -19 11 -91 53 -160 93 -68 40
-138 81 -155 90 -16 10 -85 49 -152 89 -139 81 -143 83 -163 71z"/>
</g>
</svg>
